<svg xmlns="http://www.w3.org/2000/svg" viewBox="0 0 501.38 378.49"><g data-name="Layer 2"><g data-name="Layer 1"><polyline fill="none" stroke="#ff5061" stroke-linecap="round" stroke-linejoin="round" stroke-width="3" points="221.88 288.71 198.28 243.58 194.54 249.44"/><polyline fill="none" stroke="#ff5061" stroke-linecap="round" stroke-linejoin="round" stroke-width="3" points="278.28 288.71 301.88 243.58 304.72 248.03"/><rect width="97.06" height="98.1" x="360.75" y="26.9" fill="#ffedc5" rx="13" transform="rotate(45 409.28 75.95)"/><rect width="114.32" height="114.32" x="352.12" y="18.79" fill="none" stroke="#ffcd52" stroke-linecap="round" stroke-linejoin="round" rx="13" transform="rotate(45 409.28 75.95)"/><rect width="97.06" height="98.1" x="23.21" y="111.48" fill="#f2d7db" rx="13" transform="rotate(66.18 71.74 160.516)"/><rect width="114.32" height="114.32" x="14.58" y="103.37" fill="none" stroke="#ff5061" stroke-linecap="round" stroke-linejoin="round" rx="13" transform="rotate(66.18 71.74 160.516)"/><rect width="86.38" height="215.67" x="111.9" y="68.87" fill="none" stroke="#fda01f" stroke-linecap="round" stroke-linejoin="round" stroke-width="4"/><rect width="86.38" height="215.67" x="301.5" y="68.87" fill="none" stroke="#fda01f" stroke-linecap="round" stroke-linejoin="round" stroke-width="4"/><path fill="#f46534" d="M244,21.5a79.18,79.18,0,0,1,1.21,7.89c.3,2.64.48,5.28.65,7.92s.22,5.29.2,7.94a78.83,78.83,0,0,1-.35,8,76.15,76.15,0,0,1-1.2-7.88c-.31-2.64-.49-5.28-.65-7.92s-.22-5.29-.21-7.94S243.72,24.17,244,21.5Z"/><path fill="#f46534" d="M260.71 36.51c-2.62.55-5.26.91-7.89 1.2s-5.28.49-7.92.65-5.29.23-7.94.21a78.83 78.83 0 01-8-.35A78.74 78.74 0 01236.88 37c2.63-.3 5.27-.48 7.91-.64s5.29-.23 8-.21A79 79 0 01260.71 36.51zM264.92 40.94a36.6 36.6 0 011.07 5.3c.24 1.77.41 3.55.51 5.33s.12 3.56.07 5.35a36.37 36.37 0 01-.5 5.38A36.29 36.29 0 01265 57c-.24-1.77-.42-3.54-.51-5.32s-.11-3.57-.06-5.35A38 38 0 01264.92 40.94z"/><path fill="#f46534" d="M276.18 51.05a36.56 36.56 0 01-5.3 1.06c-1.77.24-3.55.42-5.33.51s-3.56.12-5.35.07a36.35 36.35 0 01-5.38-.49 36.6 36.6 0 015.3-1.07c1.77-.24 3.55-.41 5.33-.51s3.56-.11 5.35-.06A36.47 36.47 0 01276.18 51.05zM468.25 166.09c.55 2.62.91 5.26 1.2 7.89s.49 5.28.65 7.92.22 5.29.21 7.94-.08 5.31-.35 8a78.74 78.74 0 01-1.21-7.89c-.3-2.63-.49-5.27-.65-7.91s-.22-5.29-.2-7.95A79 79 0 01468.25 166.09z"/><path fill="#f46534" d="M485 181.1c-2.62.55-5.25.91-7.89 1.2s-5.27.49-7.92.65-5.28.23-7.94.21a79 79 0 01-8-.35 78.74 78.74 0 017.89-1.21c2.63-.3 5.28-.49 7.92-.65s5.29-.22 7.94-.2A78.83 78.83 0 01485 181.1zM489.18 185.53a36.56 36.56 0 011.06 5.3c.24 1.77.42 3.55.51 5.33s.12 3.56.07 5.35a36.35 36.35 0 01-.49 5.38 36.33 36.33 0 01-1.07-5.3c-.24-1.77-.41-3.54-.5-5.32s-.12-3.57-.07-5.36A36.6 36.6 0 01489.18 185.53z"/><path fill="#f46534" d="M500.43 195.64a36.29 36.29 0 01-5.3 1.06c-1.77.24-3.54.42-5.32.51s-3.57.12-5.35.07a36.35 36.35 0 01-5.38-.49 36.2 36.2 0 015.29-1.07c1.77-.24 3.55-.42 5.33-.51s3.56-.11 5.35-.06A36.35 36.35 0 01500.43 195.64zM37 253.38a48.29 48.29 0 01-5.16 3.45c-1.77 1-3.57 2-5.4 2.94s-3.7 1.76-5.6 2.55A49.93 49.93 0 0115 264.37a48.17 48.17 0 015.15-3.45c1.77-1 3.57-2 5.41-2.94s3.7-1.76 5.6-2.55A49.93 49.93 0 0137 253.38z"/><path fill="#f46534" d="M31.47 269.88A49.75 49.75 0 0128 264.72c-1-1.76-2-3.56-2.94-5.4s-1.77-3.7-2.55-5.6a46.52 46.52 0 01-2.05-5.85A48.29 48.29 0 0123.94 253c1 1.76 2 3.56 2.94 5.4s1.76 3.7 2.54 5.6A46.52 46.52 0 0131.47 269.88zM5.14 272.88a36.78 36.78 0 013.15 4.39q1.43 2.28 2.65 4.65t2.26 4.85A36.65 36.65 0 0115 291.88a36.78 36.78 0 01-3.15-4.39c-.94-1.52-1.83-3.07-2.65-4.65S7.6 279.64 6.91 278A38 38 0 015.14 272.88z"/><path fill="#f46534" d="M19.55,277.47a36,36,0,0,1-4.39,3.15c-1.52.94-3.06,1.83-4.65,2.65s-3.2,1.57-4.85,2.26a36.21,36.21,0,0,1-5.11,1.76,36.78,36.78,0,0,1,4.39-3.15q2.28-1.42,4.65-2.65t4.86-2.25A36.56,36.56,0,0,1,19.55,277.47Z"/><polyline fill="none" stroke="#ff5061" stroke-linecap="round" stroke-linejoin="round" stroke-width="3" points="261.29 338.09 261.64 366.12 266.17 366.06"/><polyline fill="none" stroke="#ff5061" stroke-linecap="round" stroke-linejoin="round" stroke-width="3" points="236.17 339.69 236.9 367.71 225.25 367.99"/><path fill="#ffcd52" d="M32.26,59.66H467.95a8.54,8.54,0,0,1,8.54,8.54v1.34a8.54,8.54,0,0,1-8.54,8.54H32.26a9.2,9.2,0,0,1-9.2-9.2v0a9.2,9.2,0,0,1,9.2-9.2Z"/><rect width="28.41" height="18.41" x="36.58" y="59.66" fill="#fda01f"/><rect width="28.41" height="18.41" x="434.55" y="59.66" fill="#fda01f"/><rect width="102.95" height="15.88" x="103.62" y="274.56" fill="#ffcd52"/><rect width="102.95" height="15.88" x="293.21" y="274.56" fill="#ffcd52"/><path fill="#0234c1" d="M157.78 267.36q.19-6.81.2-19.15a108.15 108.15 0 00-2-21.87h18.2l-.47 2.91c-.48 2.82-.9 6.29-1.25 10.39q-1 11.58-1 24.81v2.78a35.65 35.65 0 0013-3.18V278l-2.71-.8a55.11 55.11 0 00-10.12-1.85q.58 22.89 2.77 29.44c.31.93.69 1.92 1.13 3H152a22.32 22.32 0 003.28-7.84c.5-2.63.87-5 1.09-7.25q.8-8.33 1.19-18H119.34q7.6-15.28 11.58-45.52A121.91 121.91 0 00132 213.7c0-4.54-.13-6.95-.4-7.21h21.24c-.31 1-.62 2-.93 2.84l-1 2.85q-1.12 3.31-2.25 7.41L140.51 251Q138.45 259 138 262.13t1.82 4.24c1.54.75 3.95 1.08 7.21 1zM351.67 267.36q.19-6.81.2-19.15a107.43 107.43 0 00-2-21.87h18.2l-.46 2.91c-.49 2.82-.91 6.29-1.26 10.39q-1 11.58-1 24.81v2.78a35.6 35.6 0 0013-3.18V278l-2.71-.8a55 55 0 00-10.12-1.85q.6 22.89 2.78 29.44c.31.93.68 1.92 1.12 3H345.92a22.48 22.48 0 003.27-7.84c.51-2.63.87-5 1.09-7.25q.8-8.33 1.19-18H313.23q7.61-15.28 11.58-45.52a120.08 120.08 0 001.12-15.42c0-4.54-.13-6.95-.39-7.21h21.24c-.31 1-.62 2-.93 2.84l-1 2.85q-1.12 3.31-2.25 7.41L334.4 251q-2 8.07-2.54 11.18t1.81 4.24c1.55.75 3.95 1.08 7.22 1zM249.42 349q-15.48 0-24-17.2-7.8-15.68-7.81-41.15 0-32.43 17.21-42.08a28.94 28.94 0 0114.62-3.44q16.41 0 24.54 12.83 7.29 11.65 7.28 32.69 0 35.06-14 50.35A23.35 23.35 0 01249.42 349zm-13.83-62.19q0 55.57 13.83 55.58t13.83-55.58Q263.25 260 256 254a10 10 0 00-6.55-2.19q-11.05 0-13.17 19.72Q235.59 278.12 235.59 286.85z"/><path fill="#ffcd52" d="M-103.3,205.22H214.06a0,0,0,0,1,0,0v18.41a0,0,0,0,1,0,0H-103.3a9.2,9.2,0,0,1-9.2-9.2v0A9.2,9.2,0,0,1-103.3,205.22Z" transform="rotate(90 50.78 214.43)"/><path fill="#ffcd52" d="M294,205.22H612a0,0,0,0,1,0,0v18.41a0,0,0,0,1,0,0H294a8.54,8.54,0,0,1-8.54-8.54v-1.34A8.54,8.54,0,0,1,294,205.22Z" transform="rotate(90 448.755 214.425)"/><path fill="#fda01f" d="M41.58 93.61a22.25 22.25 0 019.19-2.38A16.65 16.65 0 0160 93.41a28 28 0 00-9.18-1.19A49.66 49.66 0 0041.58 93.61zM41.58 101.82a22.76 22.76 0 019.13-2.59A17 17 0 0160 101.14a28.26 28.26 0 00-9.21-.91A51.57 51.57 0 0041.58 101.82zM41.58 152a22.49 22.49 0 019.16-2.48A16.81 16.81 0 0160 151.58a28 28 0 00-9.19-1.05A50.62 50.62 0 0041.58 152zM41.58 160.22a22.84 22.84 0 019.1-2.67A17 17 0 0160 159.3a29.14 29.14 0 00-9.23-.76A53.3 53.3 0 0041.58 160.22zM41.58 218.17a22.26 22.26 0 019.19-2.39A16.75 16.75 0 0160 218a28 28 0 00-9.18-1.19A48.83 48.83 0 0041.58 218.17zM41.58 226.38a22.76 22.76 0 019.13-2.59 17 17 0 019.27 1.9 28.53 28.53 0 00-9.21-.9A51.57 51.57 0 0041.58 226.38zM41.58 284.73a22.76 22.76 0 019.11-2.63A17 17 0 0160 283.92a28.84 28.84 0 00-9.22-.83A51.6 51.6 0 0041.58 284.73zM41.58 292.94a23.28 23.28 0 019.06-2.81A17.29 17.29 0 0160 291.67a29.76 29.76 0 00-9.25-.55A54.28 54.28 0 0041.58 292.94zM41.58 350.87a22.62 22.62 0 019.14-2.53 16.84 16.84 0 019.26 2 28.23 28.23 0 00-9.2-1A51.37 51.37 0 0041.58 350.87zM41.58 359.08a23.18 23.18 0 019.08-2.72A17.24 17.24 0 0160 358a29.12 29.12 0 00-9.23-.68A53.41 53.41 0 0041.58 359.08zM439.55 93.61a22.33 22.33 0 019.19-2.38A16.67 16.67 0 01458 93.41a28 28 0 00-9.18-1.19A49.89 49.89 0 00439.55 93.61zM439.55 101.82a22.85 22.85 0 019.13-2.59 17 17 0 019.28 1.91 28.26 28.26 0 00-9.21-.91A51.68 51.68 0 00439.55 101.82zM439.55 152a22.58 22.58 0 019.16-2.48 16.84 16.84 0 019.25 2.05 28 28 0 00-9.2-1.05A50.89 50.89 0 00439.55 152zM439.55 160.22a22.93 22.93 0 019.11-2.67 17 17 0 019.3 1.75 29.14 29.14 0 00-9.23-.76A53.58 53.58 0 00439.55 160.22zM439.55 218.17a22.34 22.34 0 019.19-2.39A16.76 16.76 0 01458 218a28 28 0 00-9.18-1.19A49.06 49.06 0 00439.55 218.17zM439.55 226.38a22.85 22.85 0 019.13-2.59 17.05 17.05 0 019.28 1.9 28.53 28.53 0 00-9.21-.9A51.68 51.68 0 00439.55 226.38zM439.55 284.73a22.76 22.76 0 019.12-2.63 17 17 0 019.29 1.82 28.84 28.84 0 00-9.22-.83A51.71 51.71 0 00439.55 284.73zM439.55 292.94a23.38 23.38 0 019.07-2.81 17.29 17.29 0 019.34 1.54 29.76 29.76 0 00-9.25-.55A54.59 54.59 0 00439.55 292.94zM439.55 350.87a22.71 22.71 0 019.15-2.53 16.84 16.84 0 019.26 2 28.26 28.26 0 00-9.21-1A51.67 51.67 0 00439.55 350.87zM439.55 359.08a23.23 23.23 0 019.09-2.72A17.25 17.25 0 01458 358a29.16 29.16 0 00-9.24-.68A53.59 53.59 0 00439.55 359.08zM94.52 59.66a12.25 12.25 0 012.61 4.23 13.55 13.55 0 01.88 5 13.84 13.84 0 01-1 4.94A15.13 15.13 0 0196 76.05c-.44.7-.94 1.37-1.44 2 .31-.77.71-1.48 1-2.24a21.3 21.3 0 00.78-2.29l.32-1.15.2-1.18A9.26 9.26 0 0097 70 7.78 7.78 0 0097 68.85a16.7 16.7 0 00-.62-4.71A18.75 18.75 0 0094.52 59.66zM103.31 59.66a12.38 12.38 0 012.6 4.23 13.55 13.55 0 01.88 5 13.83 13.83 0 01-1 4.94 15.18 15.18 0 01-1.09 2.26c-.44.7-.94 1.37-1.43 2 .3-.77.71-1.48 1-2.24a23.83 23.83 0 00.79-2.29l.31-1.15.2-1.18a7.76 7.76 0 00.14-1.18 9.32 9.32 0 00.05-1.18 16 16 0 00-.62-4.71A19.13 19.13 0 00103.31 59.66zM154.18 59.66a12.38 12.38 0 012.6 4.23 13.55 13.55 0 01.88 5 13.83 13.83 0 01-1 4.94 15.18 15.18 0 01-1.09 2.26c-.44.7-.93 1.37-1.43 2 .3-.77.71-1.48 1-2.24a21.37 21.37 0 00.79-2.29l.31-1.15.2-1.18a7.76 7.76 0 00.14-1.18 9.32 9.32 0 000-1.18 16 16 0 00-.62-4.71A19.13 19.13 0 00154.18 59.66zM163 59.66a12.25 12.25 0 012.61 4.23 13.85 13.85 0 01-.09 9.9 15.13 15.13 0 01-1.08 2.26c-.45.7-.94 1.37-1.44 2 .31-.77.71-1.48 1-2.24a23.75 23.75 0 00.78-2.29l.31-1.15.2-1.18a7.76 7.76 0 00.14-1.18 9.33 9.33 0 00.06-1.18 16.7 16.7 0 00-.62-4.71A19.6 19.6 0 00163 59.66zM213.83 59.66a12.25 12.25 0 012.61 4.23 13.71 13.71 0 01-.09 9.9 15.13 15.13 0 01-1.08 2.26c-.45.7-.94 1.37-1.44 2 .31-.77.71-1.48 1-2.24a23.75 23.75 0 00.78-2.29l.31-1.15.2-1.18a17.61 17.61 0 00.2-2.36 16.7 16.7 0 00-.62-4.71A19.17 19.17 0 00213.83 59.66zM222.61 59.66a12.25 12.25 0 012.61 4.23 13.71 13.71 0 01-.09 9.9 14.21 14.21 0 01-1.08 2.26c-.44.7-.94 1.37-1.44 2 .31-.77.71-1.48 1-2.24a21.3 21.3 0 00.78-2.29l.32-1.15.2-1.18a11.52 11.52 0 00.14-1.18 9.32 9.32 0 000-1.18 16 16 0 00-.62-4.71A18.75 18.75 0 00222.61 59.66zM273.49 59.66a12.38 12.38 0 012.6 4.23 13.55 13.55 0 01.88 5 13.83 13.83 0 01-1 4.94 15.18 15.18 0 01-1.09 2.26c-.44.7-.94 1.37-1.43 2 .3-.77.71-1.48 1-2.24a23.83 23.83 0 00.79-2.29l.31-1.15.2-1.18a7.76 7.76 0 00.14-1.18 9.32 9.32 0 00.05-1.18 16 16 0 00-.62-4.71A19.13 19.13 0 00273.49 59.66zM282.27 59.66a12.38 12.38 0 012.6 4.23 13.35 13.35 0 01.88 5 13.61 13.61 0 01-1 4.94 14.26 14.26 0 01-1.09 2.26c-.44.7-.93 1.37-1.43 2 .31-.77.71-1.48 1-2.24a23.75 23.75 0 00.78-2.29l.31-1.15.2-1.18A7.76 7.76 0 00284.7 70a9.32 9.32 0 00.05-1.18 16.34 16.34 0 00-.61-4.71A19.6 19.6 0 00282.27 59.66zM333.14 59.66a12.4 12.4 0 012.61 4.23 13.85 13.85 0 01-.09 9.9 15.13 15.13 0 01-1.08 2.26c-.45.7-.94 1.37-1.44 2 .31-.77.71-1.48 1-2.24a23.75 23.75 0 00.78-2.29l.31-1.15.2-1.18a15.64 15.64 0 00.19-2.36 16.34 16.34 0 00-.61-4.71A19.6 19.6 0 00333.14 59.66zM341.92 59.66a12.25 12.25 0 012.61 4.23 13.55 13.55 0 01.88 5 13.84 13.84 0 01-1 4.94 15.13 15.13 0 01-1.08 2.26c-.44.7-.94 1.37-1.44 2 .31-.77.71-1.48 1-2.24a21.3 21.3 0 00.78-2.29l.32-1.15.2-1.18a9.26 9.26 0 00.13-1.18 7.78 7.78 0 00.06-1.18 16.7 16.7 0 00-.62-4.71A18.75 18.75 0 00341.92 59.66zM392.79 59.66a12.25 12.25 0 012.61 4.23 13.71 13.71 0 01-.09 9.9 14.21 14.21 0 01-1.08 2.26c-.44.7-.94 1.37-1.44 2 .31-.77.71-1.48 1-2.24a21.3 21.3 0 00.78-2.29l.32-1.15.2-1.18a9.26 9.26 0 00.13-1.18 7.78 7.78 0 00.06-1.18 16.35 16.35 0 00-.62-4.71A18.75 18.75 0 00392.79 59.66zM401.58 59.66a12.38 12.38 0 012.6 4.23 13.35 13.35 0 01.88 5 13.83 13.83 0 01-1 4.94A15.18 15.18 0 01403 76.05c-.44.7-.93 1.37-1.43 2 .3-.77.71-1.48 1-2.24a21.37 21.37 0 00.79-2.29l.31-1.15.2-1.18A7.76 7.76 0 00404 70a9.32 9.32 0 00.05-1.18 16 16 0 00-.62-4.71A19.13 19.13 0 00401.58 59.66z"/><path fill="#ff5061" d="M138.31,324a7,7,0,0,1,4.76-2.11c6.49-.18,9.69-.72,10.42-1.3,1.22-.89-1.47-12.88-1.47-12.88h23.49l-2,29.46a1.39,1.39,0,0,1-1.18,1.41l-33.56,0a1.39,1.39,0,0,1-1.41-1.18l-.75-8.52A6.28,6.28,0,0,1,138.31,324Z"/><path fill="#ffcd52" d="M173.94,329l-.19,2.61-36.58,3.22L137,332.2Z"/><ellipse cx="450.92" cy="343.76" fill="#fff" rx="19.68" ry="34.1"/><ellipse cx="450.92" cy="343.76" fill="none" stroke="#ff5061" stroke-linecap="round" stroke-linejoin="round" rx="19.68" ry="34.1"/><path fill="#ff5061" d="M467.8,358.76c2.8-6.47.69-10.43.69-15,0-9.63-3.22-20.53-9-27.37a52.49,52.49,0,0,0-2.46,15.13C457.07,341.15,462.06,351.92,467.8,358.76Z"/><ellipse cx="481.2" cy="331.59" fill="#fff" rx="19.68" ry="34.1"/><path fill="#ff5061" d="M432.88,344.83c0,3.81-1.54,6.85.57,12,9-7.22,15.83-19.32,15.83-31.79a55.39,55.39,0,0,0-1.9-13C438.33,319.19,432.88,332.36,432.88,344.83Z"/><ellipse cx="426.09" cy="323.08" fill="#fff" rx="19.68" ry="34.1"/><line x1="450.92" x2="450.92" y1="377.86" y2="326.72" fill="none" stroke="#ff5061" stroke-linecap="round" stroke-linejoin="round"/><line x1="450.92" x2="442.95" y1="346.75" y2="337.64" fill="none" stroke="#ff5061" stroke-linecap="round" stroke-linejoin="round"/><line x1="450.92" x2="439.44" y1="357.63" y2="344.5" fill="none" stroke="#ff5061" stroke-linecap="round" stroke-linejoin="round"/><line x1="450.92" x2="439.06" y1="368.84" y2="355.28" fill="none" stroke="#ff5061" stroke-linecap="round" stroke-linejoin="round"/><line x1="450.92" x2="460.59" y1="346.77" y2="335.72" fill="none" stroke="#ff5061" stroke-linecap="round" stroke-linejoin="round"/><line x1="450.92" x2="462.78" y1="357.65" y2="344.09" fill="none" stroke="#ff5061" stroke-linecap="round" stroke-linejoin="round"/><line x1="450.92" x2="462.78" y1="368.86" y2="355.3" fill="none" stroke="#ff5061" stroke-linecap="round" stroke-linejoin="round"/><ellipse cx="426.09" cy="323.08" fill="none" stroke="#439916" stroke-linecap="round" stroke-linejoin="round" rx="19.68" ry="34.1"/><polyline fill="none" stroke="#439916" stroke-linecap="round" stroke-linejoin="round" points="426.09 306.04 426.09 357.18 426.09 377.99"/><line x1="426.09" x2="416.44" y1="326.07" y2="315.04" fill="none" stroke="#439916" stroke-linecap="round" stroke-linejoin="round"/><line x1="426.09" x2="414.23" y1="336.95" y2="323.39" fill="none" stroke="#439916" stroke-linecap="round" stroke-linejoin="round"/><line x1="426.09" x2="414.23" y1="348.16" y2="334.6" fill="none" stroke="#439916" stroke-linecap="round" stroke-linejoin="round"/><line x1="426.09" x2="435.75" y1="326.09" y2="315.04" fill="none" stroke="#439916" stroke-linecap="round" stroke-linejoin="round"/><line x1="426.09" x2="437.95" y1="336.97" y2="323.41" fill="none" stroke="#439916" stroke-linecap="round" stroke-linejoin="round"/><line x1="426.09" x2="437.95" y1="348.18" y2="334.62" fill="none" stroke="#439916" stroke-linecap="round" stroke-linejoin="round"/><ellipse cx="481.2" cy="331.59" fill="none" stroke="#ffcd52" stroke-linecap="round" stroke-linejoin="round" rx="19.68" ry="34.1"/><polyline fill="none" stroke="#ffcd52" stroke-linecap="round" stroke-linejoin="round" points="481.2 314.55 481.2 365.69 481.2 377.99"/><line x1="481.2" x2="471.55" y1="334.58" y2="323.55" fill="none" stroke="#ffcd52" stroke-linecap="round" stroke-linejoin="round"/><line x1="481.2" x2="469.34" y1="345.46" y2="331.89" fill="none" stroke="#ffcd52" stroke-linecap="round" stroke-linejoin="round"/><line x1="481.2" x2="469.34" y1="356.67" y2="343.11" fill="none" stroke="#ffcd52" stroke-linecap="round" stroke-linejoin="round"/><line x1="481.2" x2="490.87" y1="334.6" y2="323.55" fill="none" stroke="#ffcd52" stroke-linecap="round" stroke-linejoin="round"/><line x1="481.2" x2="493.06" y1="345.48" y2="331.92" fill="none" stroke="#ffcd52" stroke-linecap="round" stroke-linejoin="round"/><line x1="481.2" x2="493.06" y1="356.69" y2="343.13" fill="none" stroke="#ffcd52" stroke-linecap="round" stroke-linejoin="round"/><g data-name="shoes"><path fill="#ff5061" d="M383.1,324a7,7,0,0,0-4.76-2.11c-6.48-.18-9.69-.72-10.42-1.3-1.22-.89,1.47-12.88,1.47-12.88H345.9l2,29.46a1.39,1.39,0,0,0,1.18,1.41l33.57,0a1.39,1.39,0,0,0,1.4-1.18l.75-8.52A6.28,6.28,0,0,0,383.1,324Z"/><path fill="#ffcd52" d="M384.46,332.2l-.22,2.58-36.57-3.22-.2-2.61Z"/></g><g data-name="shoes"><path fill="#0234c1" d="M289.66,363.42a6.92,6.92,0,0,0-4.76-2.11c-6.49-.18-9.69-.72-10.42-1.31a.66.66,0,0,1-.23-.34c-1.46-4.3-5-7.54-9.54-7.54h-1.63a9.81,9.81,0,0,0-9.77,10.59l1.11,13.88a1.38,1.38,0,0,0,1.17,1.4l33.57,0a1.41,1.41,0,0,0,1.41-1.18l.75-8.52A6.26,6.26,0,0,0,289.66,363.42Z"/><path fill="#ffcd52" d="M291,371.6l-.23,2.59L254,371l-.17-2.6Z"/></g><g data-name="shoes"><path fill="#0234c1" d="M208,363.42a6.91,6.91,0,0,1,4.76-2.11c6.48-.18,9.69-.72,10.42-1.31a.66.66,0,0,0,.23-.34c1.46-4.3,5-7.54,9.54-7.54h1.62a9.81,9.81,0,0,1,9.78,10.59l-1.11,13.88A1.38,1.38,0,0,1,242,378l-33.57,0a1.41,1.41,0,0,1-1.4-1.18l-.75-8.52A6.26,6.26,0,0,1,208,363.42Z"/><path fill="#ffcd52" d="M243.75,368.35l-.18,2.6-36.75,3.24-.22-2.59Z"/></g><line x1="1.78" x2="492.6" y1="377.99" y2="377.99" fill="none" stroke="#545454" stroke-linecap="round" stroke-linejoin="round"/></g></g></svg>