<svg xmlns="http://www.w3.org/2000/svg" viewBox="0 0 441.34 388.89"><g data-name="Layer 2"><g data-name="Layer 1"><ellipse cx="357.1" cy="354.16" fill="none" stroke="#ff5061" stroke-linecap="round" stroke-linejoin="round" rx="19.68" ry="34.1"/><path fill="#ff5061" d="M340.22,369.15c-2.81-6.46-.69-10.42-.69-15,0-9.63,3.22-20.54,9-27.38a52.48,52.48,0,0,1,2.45,15.13C350.94,351.54,346,362.31,340.22,369.15Z"/><ellipse cx="326.82" cy="341.98" fill="#fff" rx="19.68" ry="34.1"/><path fill="#ff5061" d="M375.13,355.22c0,3.81,1.55,6.85-.56,12-9-7.21-15.83-19.32-15.83-31.78a55.47,55.47,0,0,1,1.9-13C369.68,329.58,375.13,342.76,375.13,355.22Z"/><ellipse cx="381.93" cy="333.48" fill="#fff" rx="19.68" ry="34.1"/><line x1="357.1" x2="357.1" y1="388.25" y2="337.12" fill="none" stroke="#ff5061" stroke-linecap="round" stroke-linejoin="round"/><line x1="357.1" x2="365.07" y1="357.15" y2="348.03" fill="none" stroke="#ff5061" stroke-linecap="round" stroke-linejoin="round"/><line x1="357.1" x2="368.58" y1="368.03" y2="354.89" fill="none" stroke="#ff5061" stroke-linecap="round" stroke-linejoin="round"/><line x1="357.1" x2="368.96" y1="379.24" y2="365.68" fill="none" stroke="#ff5061" stroke-linecap="round" stroke-linejoin="round"/><line x1="357.1" x2="347.43" y1="357.17" y2="346.12" fill="none" stroke="#ff5061" stroke-linecap="round" stroke-linejoin="round"/><line x1="357.1" x2="345.24" y1="368.05" y2="354.49" fill="none" stroke="#ff5061" stroke-linecap="round" stroke-linejoin="round"/><line x1="357.1" x2="345.24" y1="379.26" y2="365.7" fill="none" stroke="#ff5061" stroke-linecap="round" stroke-linejoin="round"/><ellipse cx="381.93" cy="333.48" fill="none" stroke="#008ef8" stroke-miterlimit="10" rx="19.68" ry="34.1"/><polyline fill="none" stroke="#008ef8" stroke-linecap="round" stroke-linejoin="round" points="381.93 316.44 381.93 367.57 381.93 388.39"/><line x1="381.93" x2="391.58" y1="336.47" y2="325.44" fill="none" stroke="#008ef8" stroke-linecap="round" stroke-linejoin="round"/><line x1="381.93" x2="393.79" y1="347.35" y2="333.78" fill="none" stroke="#008ef8" stroke-linecap="round" stroke-linejoin="round"/><line x1="381.93" x2="393.79" y1="358.56" y2="345" fill="none" stroke="#008ef8" stroke-linecap="round" stroke-linejoin="round"/><line x1="381.93" x2="372.27" y1="336.49" y2="325.44" fill="none" stroke="#008ef8" stroke-linecap="round" stroke-linejoin="round"/><line x1="381.93" x2="370.07" y1="347.37" y2="333.81" fill="none" stroke="#008ef8" stroke-linecap="round" stroke-linejoin="round"/><line x1="381.93" x2="370.07" y1="358.58" y2="345.02" fill="none" stroke="#008ef8" stroke-linecap="round" stroke-linejoin="round"/><ellipse cx="326.82" cy="341.98" fill="none" stroke="#ffcd52" stroke-linecap="round" stroke-linejoin="round" rx="19.68" ry="34.1"/><polyline fill="none" stroke="#ffcd52" stroke-linecap="round" stroke-linejoin="round" points="326.82 324.94 326.82 376.08 326.82 388.39"/><line x1="326.82" x2="336.46" y1="344.97" y2="333.94" fill="none" stroke="#ffcd52" stroke-linecap="round" stroke-linejoin="round"/><line x1="326.82" x2="338.68" y1="355.85" y2="342.29" fill="none" stroke="#ffcd52" stroke-linecap="round" stroke-linejoin="round"/><line x1="326.82" x2="338.68" y1="367.06" y2="353.5" fill="none" stroke="#ffcd52" stroke-linecap="round" stroke-linejoin="round"/><line x1="326.82" x2="317.15" y1="344.99" y2="333.94" fill="none" stroke="#ffcd52" stroke-linecap="round" stroke-linejoin="round"/><line x1="326.82" x2="314.96" y1="355.87" y2="342.31" fill="none" stroke="#ffcd52" stroke-linecap="round" stroke-linejoin="round"/><line x1="326.82" x2="314.96" y1="367.08" y2="353.52" fill="none" stroke="#ffcd52" stroke-linecap="round" stroke-linejoin="round"/><rect width="97.06" height="98.1" x="86.21" y="247.61" fill="#c1e3f7" rx="13" transform="rotate(67.07 134.74 296.667)"/><rect width="114.32" height="114.32" x="77.58" y="239.5" fill="none" stroke="#008ef8" stroke-linecap="round" stroke-linejoin="round" rx="13" transform="rotate(67.07 134.74 296.667)"/><polyline fill="#0850ec" points="195 210.75 193.8 240.03 205.41 265.94 185.47 254.35 193.8 240.03"/><path fill="#0234c1" d="M175.54 98l.07-24.88a10.05 10.05 0 0110.32-10l4 .11a10.06 10.06 0 0010.14-8.16l1.53-8A10 10 0 01213 39h0a10.06 10.06 0 018.52 9.64L222.15 71zM146.41 173.43L132 173.12a6 6 0 00-4.69 10l.71.82a6.07 6.07 0 011.47 4.11l-.27 10a6 6 0 004.33 6l3.53 1a6 6 0 014.26 4.92l1.21 8.29a6 6 0 008.6 4.56h0a6 6 0 003.3-4.32l3.85-20.45z"/><polyline fill="#0850ec" points="226.7 209.67 255.74 213.66 282.63 204.57 269.2 223.3 255.74 213.66"/><ellipse cx="212.69" cy="148.97" fill="#ffcd52" rx="85.58" ry="61.04" transform="rotate(-57.01 212.704 148.979)"/><path fill="#0234c1" d="M211,146.77c-3,3.27-6.16,6.43-9.28,9.6l-4.73,4.72-2.37,2.34-1.2,1.16-.29.29-.18.21a1.41,1.41,0,0,0-.22.42,1.55,1.55,0,0,0,.49,1.68,1.42,1.42,0,0,0,.78.32,2.53,2.53,0,0,0,.46,0l.82-.17,3.26-.66,1.64-.33.82-.17a5.87,5.87,0,0,1,1.12-.12,4.15,4.15,0,0,1,3.85,2.83,11.36,11.36,0,0,1,.31,1.94l.19,1.65.78,6.63.35,3.31.18,1.66c0,.12,0,.32,0,.37a1.06,1.06,0,0,0,0,.19,1.11,1.11,0,0,0,.16.35,1.25,1.25,0,0,0,1.36.52l3.16-.89,3.22-.88.8-.22a4.38,4.38,0,0,1,1.19-.17,4,4,0,0,1,2.32.74,2.93,2.93,0,0,1,.48.39c.14.13.31.33.33.34a1.13,1.13,0,0,0,.34.28,1.5,1.5,0,0,0,2.18-.91c1.81-8.6,3.72-17.37,5.93-26-1,8.88-2.23,17.61-3.65,26.51a3.94,3.94,0,0,1-5.69,2.64,3.74,3.74,0,0,1-1-.73l-.25-.25a1.18,1.18,0,0,0-.18-.13,1.38,1.38,0,0,0-.81-.22,1.43,1.43,0,0,0-.45.09l-.8.25-3.18,1-3.24,1a4.19,4.19,0,0,1-4.5-1.68,3.84,3.84,0,0,1-.56-1.15c-.06-.21-.1-.42-.14-.63s0-.3,0-.45l-.2-1.66-.38-3.31-.71-6.63-.17-1.66c-.06-.52-.12-1.23-.17-1.35a1.34,1.34,0,0,0-1.18-.91,10.34,10.34,0,0,0-1.35.19l-1.65.28-3.28.56-.83.14a4.36,4.36,0,0,1-1.2,0,3.84,3.84,0,0,1-2.2-1,4,4,0,0,1-1-4.41,3.43,3.43,0,0,1,.62-1l.39-.41.32-.27,1.25-1.1,2.51-2.2,5.06-4.35C204.07,152.43,207.47,149.55,211,146.77Z"/><path fill="#f44552" d="M274.22,88.37c4-4.77,7.45-9.66,6.74-11.61,0,0,9.54,16.45,4.8,25.4,0,0,21.71,6.31,6.14,13.82l-.29.08C275.47,120.24,263.52,101.15,274.22,88.37Z"/><path fill="#475259" d="M235.05,84.06a21.71,21.71,0,0,1,.39,9.43,18.73,18.73,0,0,1-3.94,8.81,17.56,17.56,0,0,1-8.05,5.35,23.46,23.46,0,0,1-9.38,1,39.31,39.31,0,0,0,8.82-2.51c.7-.27,1.34-.67,2-1a19,19,0,0,0,1.85-1.21,15.63,15.63,0,0,0,3.21-3,20.49,20.49,0,0,0,4-7.86A34.71,34.71,0,0,0,235.05,84.06Z"/><path fill="none" stroke="#008ef8" stroke-linecap="round" stroke-linejoin="round" d="M385.35,75.49,296.48,56.34a7.45,7.45,0,0,1-5.89-7.29V8A7.46,7.46,0,0,1,298.05.5h88.87A7.46,7.46,0,0,1,394.37,8V68.21A7.45,7.45,0,0,1,385.35,75.49Z"/><polygon fill="none" stroke="#008ef8" stroke-linecap="round" stroke-linejoin="round" points="298.91 56.87 302.4 66.62 318.11 61 298.91 56.87"/><polygon fill="#008ef8" points="317.46 61.23 318.11 61 298.91 56.87 300.15 60.32 317.46 61.23"/><path fill="#0234c1" d="M122.38,7.39a78.74,78.74,0,0,1,1.21,7.89c.3,2.63.48,5.27.64,7.91s.23,5.29.21,8a79,79,0,0,1-.35,8,78.74,78.74,0,0,1-1.21-7.89c-.3-2.64-.48-5.28-.64-7.92S122,18,122,15.36,122.11,10.05,122.38,7.39Z"/><path fill="#0234c1" d="M139.1 22.39a79.63 79.63 0 01-7.89 1.21c-2.64.3-5.28.48-7.92.65s-5.29.22-7.94.2a76 76 0 01-8-.35 76.15 76.15 0 017.88-1.2c2.64-.31 5.28-.49 7.92-.65s5.29-.22 7.94-.21S136.43 22.12 139.1 22.39zM143.31 26.83a37.7 37.7 0 011.07 5.3c.24 1.77.41 3.54.51 5.32S145 41 145 42.8a38 38 0 01-.5 5.39 36.56 36.56 0 01-1.06-5.3c-.24-1.77-.42-3.55-.51-5.33s-.12-3.56-.07-5.35A39.26 39.26 0 01143.31 26.83z"/><path fill="#0234c1" d="M154.57 36.93a38 38 0 01-5.3 1.07c-1.77.24-3.55.41-5.33.51s-3.56.11-5.35.06a36.35 36.35 0 01-5.38-.49 36.56 36.56 0 015.3-1.06c1.77-.25 3.54-.42 5.32-.51s3.57-.12 5.36-.07A36.47 36.47 0 01154.57 36.93zM409.16 223.34c.55 2.62.91 5.25 1.2 7.89s.49 5.28.65 7.92.23 5.29.21 7.94-.08 5.3-.35 8a78.74 78.74 0 01-1.21-7.89c-.3-2.63-.49-5.27-.65-7.92s-.22-5.29-.2-7.94A79 79 0 01409.16 223.34z"/><path fill="#0234c1" d="M425.87 238.35c-2.62.55-5.25.91-7.89 1.2s-5.27.49-7.91.65-5.29.22-7.95.21a79 79 0 01-8-.36c2.62-.55 5.26-.91 7.89-1.2s5.28-.49 7.92-.65 5.29-.22 7.94-.2A78.83 78.83 0 01425.87 238.35zM430.09 242.78a36.56 36.56 0 011.06 5.3c.25 1.77.42 3.55.51 5.33s.12 3.56.07 5.35a36.35 36.35 0 01-.49 5.38 38 38 0 01-1.07-5.3c-.24-1.77-.41-3.55-.5-5.33s-.12-3.56-.07-5.35A36.47 36.47 0 01430.09 242.78z"/><path fill="#0234c1" d="M441.34 252.89a37.53 37.53 0 01-5.29 1.06c-1.78.24-3.55.41-5.33.51s-3.56.12-5.35.07A36.35 36.35 0 01420 254a34.93 34.93 0 015.29-1.07c1.78-.24 3.55-.42 5.33-.51s3.56-.11 5.35-.06A36.35 36.35 0 01441.34 252.89zM15 276.12c.55 2.62.91 5.25 1.2 7.89s.49 5.27.65 7.91.22 5.29.21 7.94a79 79 0 01-.36 8c-.55-2.62-.91-5.26-1.2-7.89s-.49-5.28-.65-7.92-.22-5.29-.2-7.94A76 76 0 0115 276.12z"/><path fill="#0234c1" d="M31.72 291.12a78.74 78.74 0 01-7.89 1.21c-2.63.3-5.27.48-7.92.64s-5.29.23-7.94.21a79 79 0 01-8-.35 78.74 78.74 0 017.89-1.21c2.63-.3 5.27-.48 7.92-.64s5.29-.22 7.94-.21S29.05 290.85 31.72 291.12zM35.94 295.56a36.29 36.29 0 011.06 5.3c.24 1.77.42 3.54.51 5.32s.12 3.57.07 5.35a36.35 36.35 0 01-.49 5.38A36.2 36.2 0 0136 311.62c-.24-1.77-.42-3.55-.51-5.33s-.11-3.56-.06-5.35A36.35 36.35 0 0135.94 295.56z"/><path fill="#0234c1" d="M47.19,305.66a37.7,37.7,0,0,1-5.3,1.07c-1.77.24-3.54.41-5.32.5s-3.57.12-5.36.07a36.6,36.6,0,0,1-5.38-.49,38,38,0,0,1,5.3-1.07c1.77-.24,3.55-.41,5.33-.5s3.56-.12,5.35-.07A36.35,36.35,0,0,1,47.19,305.66Z"/><path fill="#f7f7f7" d="M304.45,147.67l-10.84-4.08-11.52-6.72-11.76,15.84-14.74-3.12-19.74,16.57-21.36-7.61-12.56,43.36-26.4-6.59-18.24,11.39-15.77-13.64L125.17,209h0a226.56,226.56,0,0,0-1.73,28.11c0,83.57,44.65,151.32,99.72,151.32s99.72-67.75,99.72-151.32c0-33.61-7.22-64.67-19.44-89.78"/><path fill="#d3d3d3" d="M285 209c1.38.61 2.71 1.3 4 2s2.6 1.46 3.89 2.22l-.71-.11c2-.65 4-1.24 6-1.81l3-.81 3-.73h.08a.66.66 0 01.48.05 78.07 78.07 0 017.55 4.14 81.51 81.51 0 01-8.21-2.58l.56 0-3 .95-3 .88c-2 .55-4 1.08-6.06 1.54l-.08 0a.75.75 0 01-.62-.13c-1.2-.89-2.39-1.78-3.55-2.72S286.07 210 285 209zM237.45 178.51c1.13 1 2.23 1.94 3.31 2.94s2.15 2 3.21 3.06l-.86-.15c1-.58 1.95-1.17 2.94-1.74l2.95-1.71-.14.09 3.1-2.49c1-.84 2.08-1.63 3.13-2.45h0a1 1 0 011.31.09q1.37 1.46 2.7 2.94c.9 1 1.79 2 2.66 3l-.23-.17c2.89 1.5 5.77 3 8.56 4.77-3.12-1-6.17-2.17-9.19-3.4a.42.42 0 01-.18-.11l-.05 0c-1-.91-1.93-1.84-2.87-2.78s-1.89-1.87-2.81-2.83l1.3.09c-1 .83-2.05 1.67-3.11 2.48L250 182.49l0 0a.41.41 0 01-.11.07l-3 1.54c-1 .51-2.05 1-3.07 1.49l-.06 0a.66.66 0 01-.8-.17c-.94-1.13-1.88-2.27-2.79-3.43S238.32 179.72 237.45 178.51zM209.37 349.87c1.13.95 2.23 1.94 3.31 2.94s2.15 2 3.21 3.06l-.86-.15c1-.58 1.95-1.17 2.94-1.74l2.95-1.71-.14.09 3.1-2.49c1-.84 2.08-1.63 3.13-2.45h0a1 1 0 011.31.09q1.37 1.46 2.7 2.94c.9 1 1.79 2 2.66 3l-.23-.17c2.89 1.5 5.77 3.05 8.56 4.77-3.12-1-6.17-2.17-9.19-3.4a.42.42 0 01-.18-.11l0 0c-1-.91-1.93-1.84-2.87-2.78s-1.89-1.87-2.81-2.83l1.3.09c-1 .83-2.05 1.67-3.11 2.48L222 353.85l0 0a.41.41 0 01-.11.07l-3 1.54c-1 .51-2.05 1-3.07 1.49l-.06 0a.66.66 0 01-.8-.17c-.94-1.13-1.88-2.27-2.79-3.43S210.24 351.08 209.37 349.87zM182.25 218.07c1.38.61 2.71 1.3 4 2s2.6 1.46 3.89 2.22l-.71-.11c2-.66 4-1.25 6-1.82l3-.8 3-.73.08 0a.66.66 0 01.48.06 78 78 0 017.55 4.13 79 79 0 01-8.21-2.58l.56 0-3 .95-3 .88c-2 .54-4 1.07-6.06 1.54l-.08 0a.79.79 0 01-.62-.13c-1.2-.89-2.39-1.79-3.55-2.73S183.35 219.11 182.25 218.07zM142.89 295.27c2-1.88 4-3.71 6-5.55s4-3.67 6.07-5.48a.6.6 0 01.83.05l0 0 6.64 7.3-.95-.21 6.92-3.21 6.93-3.17a1 1 0 01.78 0h0l7.09 3.1 7.07 3.15-.25-.08 6.71 1 6.71 1-.31 0c3.21-.74 6.43-1.48 9.65-2.19h0a.54.54 0 01.54.18c1.66 1.92 3.29 3.86 4.91 5.81s3.27 3.88 4.86 5.86c-1.8-1.79-3.57-3.61-5.34-5.42s-3.55-3.63-5.29-5.47l.57.17c-3.17.9-6.36 1.76-9.54 2.62a.9.9 0 01-.28 0h0l-6.74-.86-6.72-.9a.84.84 0 01-.24-.06h0l-7.09-3.09-7.07-3.14h.79l-7 3.07-7 3h0a.81.81 0 01-.93-.22l-6.32-7.58.86.06c-2.13 1.71-4.26 3.41-6.41 5.08S145.07 293.62 142.89 295.27zM231.21 270.07c2.81.1 5.62.25 8.43.4s5.62.28 8.42.47h-.14l8.85-1.62a.7.7 0 01.55.12l0 0c3.57 2.57 7.11 5.18 10.66 7.78l-1.23.1 6.09-6.39 6.11-6.37a1 1 0 011.39 0 .34.34 0 01.08.09l5.26 6.37-1.31-.16 7.86-5.63 7.89-5.57 0 0a.72.72 0 01.81 0c3.19 2.28 6.38 4.56 9.54 6.88s6.34 4.62 9.46 7c-3.35-2.05-6.63-4.18-10-6.28s-6.59-4.25-9.86-6.4H301l-7.71 5.82-7.75 5.77a.94.94 0 01-1.3-.15h0l-5.3-6.34 1.48.06-6.13 6.35-6.16 6.32h0a.92.92 0 01-1.22.09c-3.49-2.67-7-5.34-10.45-8.06l.57.15-8.91 1.25H248c-2.79-.3-5.58-.64-8.38-1S234 270.45 231.21 270.07z"/><circle cx="327.54" cy="24.48" r="4.65" fill="#008ef8"/><circle cx="350.72" cy="24.48" r="4.65" fill="#008ef8"/><path fill="#008ef8" d="M322.89,33.72a34.18,34.18,0,0,0,3.43,3.58,27.55,27.55,0,0,0,3.88,3,17.69,17.69,0,0,0,9,3.13,12.88,12.88,0,0,0,4.72-.73,16.34,16.34,0,0,0,4.31-2.18,34,34,0,0,0,7.1-6.83q-.69,1-1.41,2.07l-1.56,2a26.05,26.05,0,0,1-3.68,3.43,15.08,15.08,0,0,1-9.51,3.28A17.28,17.28,0,0,1,329.76,41,27.54,27.54,0,0,1,322.89,33.72Z"/><circle cx="236.75" cy="133.66" r="10.04" fill="#f44552"/><line x1="31.79" x2="421.61" y1="388.39" y2="388.39" fill="none" stroke="#545454" stroke-linecap="round" stroke-linejoin="round"/></g></g></svg>